# xmcd
#
# Track frame offsets:
#	150
#	13332
#	25340
#	38399
#	48371
#	60716
#	71951
#	83652
#	98378
#	110961
#	126530
#	144353
#	157656
#	173290
#	184945
#
# Disc length: 2637 seconds
#
# Revision: 0
# Processed by: cddbd v1.5.2PL0 Copyright (c) Steve Scherf et al.
# Submitted via: EZCDAudioConverter 7.1.5.1
#
DISCID=c00a4b0f
DTITLE=Various Artist - Volkstümliche Hüttengaudi CD4
DYEAR=1900
DGENRE=
TTITLE0=Die Edlseet - I sing a Lied für di
TTITLE1=Alpenrebellen - Die Leut am Land
TTITLE2=Matrosen in Lederhose - Tannenzapfenzupfen
TTITLE3=Die Grubertaler - Ramba Zamba
TTITLE4=Various Artist - Die 3 Z Widern
TTITLE5=Various Artist - Marc Pircher
TTITLE6=Die Mosttibären - Laut und lässig
TTITLE7=Die Fetzign Feat DJ Mox - Nix Amore
TTITLE8=Florian Fesl - Bombig, bärig richtig fesch
TTITLE9=Zillertaler Haderlumpen - Hoch so hoch
TTITLE10=Orig. Südtiroler Spitzbuam - Schenk mir heut Nacht dein ganzes Herz
TTITLE11=Zellberg Buam - Maserati-Kathi
TTITLE12=Sepp der Partyrocker - Es war einmalein Jäger
TTITLE13=Die Mayrhoefner - Zillertaler Teufelsgeiger-Polka
TTITLE14=Orig, Tiroler Echo - Wenn die Sonn vom Himmel lacht
EXTD=
EXTT0=
EXTT1=
EXTT2=
EXTT3=
EXTT4=
EXTT5=
EXTT6=
EXTT7=
EXTT8=
EXTT9=
EXTT10=
EXTT11=
EXTT12=
EXTT13=
EXTT14=
PLAYORDER=
